<svg xmlns="http://www.w3.org/2000/svg"  viewBox="0 0 100 100" width="100px" height="100px" fill="#ee4267"><path fill="#ee4267" d="M39,53L39,53c4.418,0,8,3.582,8,8v18c0,4.418-3.582,8-8,8h0c-4.418,0-8-3.582-8-8V61 C31,56.582,34.582,53,39,53z"/><path fill="#8cc78c" d="M59,13L59,13c4.418,0,8,3.582,8,8v18c0,4.418-3.582,8-8,8h0c-4.418,0-8-3.582-8-8V21 C51,16.582,54.582,13,59,13z"/><path fill="#31c4f3" d="M47,41L47,41c0,4.418-3.582,8-8,8H21c-4.418,0-8-3.582-8-8v0c0-4.418,3.582-8,8-8h18 C43.418,33,47,36.582,47,41z"/><path fill="#ead032" d="M85,59L85,59c0,4.418-3.582,8-8,8H59c-4.418,0-8-3.582-8-8v0c0-4.418,3.582-8,8-8h18 C81.418,51,85,54.582,85,59z"/><path fill="#ead032" d="M59,87L59,87c-4.418,0-8-3.582-8-8v-8h8c4.418,0,8,3.582,8,8v0C67,83.418,63.418,87,59,87z"/><path fill="#ee4267" d="M19,69L19,69c-4.418,0-8-3.582-8-8v0c0-4.418,3.582-8,8-8h8v8C27,65.418,23.418,69,19,69z"/><path fill="#8cc78c" d="M79,47h-8v-8c0-4.418,3.582-8,8-8h0c4.418,0,8,3.582,8,8v0C87,43.418,83.418,47,79,47z"/><path fill="#31c4f3" d="M47,29h-8c-4.418,0-8-3.582-8-8v0c0-4.418,3.582-8,8-8h0c4.418,0,8,3.582,8,8V29z"/><path fill="#1f212b" d="M39,88c-4.962,0-9-4.038-9-9V61c0-4.962,4.038-9,9-9s9,4.038,9,9v18C48,83.962,43.962,88,39,88z M39,54c-3.86,0-7,3.14-7,7v18c0,3.86,3.14,7,7,7s7-3.14,7-7V61C46,57.14,42.86,54,39,54z"/><path fill="#1f212b" d="M59,48c-4.962,0-9-4.038-9-9V21c0-4.962,4.038-9,9-9s9,4.038,9,9v18C68,43.962,63.962,48,59,48z M59,14c-3.86,0-7,3.14-7,7v18c0,3.86,3.14,7,7,7s7-3.14,7-7V21C66,17.14,62.86,14,59,14z"/><path fill="#1f212b" d="M39,50H21c-4.962,0-9-4.038-9-9s4.038-9,9-9h18c4.962,0,9,4.038,9,9S43.962,50,39,50z M21,34 c-3.86,0-7,3.14-7,7s3.14,7,7,7h18c3.86,0,7-3.14,7-7s-3.14-7-7-7H21z"/><path fill="#1f212b" d="M77,68H59c-4.962,0-9-4.038-9-9s4.038-9,9-9h18c4.962,0,9,4.038,9,9S81.962,68,77,68z M59,52 c-3.86,0-7,3.14-7,7s3.14,7,7,7h18c3.86,0,7-3.14,7-7s-3.14-7-7-7H59z"/><path fill="#1f212b" d="M59,88c-4.962,0-9-4.038-9-9v-8c0-0.552,0.448-1,1-1h8c4.962,0,9,4.038,9,9S63.962,88,59,88z M52,72v7c0,3.86,3.14,7,7,7s7-3.14,7-7s-3.14-7-7-7H52z"/><path fill="#1f212b" d="M19,70c-4.962,0-9-4.038-9-9s4.038-9,9-9h8c0.552,0,1,0.448,1,1v8C28,65.962,23.962,70,19,70z M19,54c-3.86,0-7,3.14-7,7s3.14,7,7,7s7-3.14,7-7v-7H19z"/><path fill="#1f212b" d="M79,48h-8c-0.552,0-1-0.448-1-1v-8c0-4.962,4.038-9,9-9s9,4.038,9,9S83.962,48,79,48z M72,46h7 c3.86,0,7-3.14,7-7s-3.14-7-7-7s-7,3.14-7,7V46z"/><path fill="#1f212b" d="M47,30h-8c-4.962,0-9-4.038-9-9s4.038-9,9-9s9,4.038,9,9v8C48,29.552,47.552,30,47,30z M39,14 c-3.86,0-7,3.14-7,7s3.14,7,7,7h7v-7C46,17.14,42.86,14,39,14z"/></svg>